<?xml version="1.0" encoding="UTF-8" standalone="no"?>
<!-- Created with Inkscape (http://www.inkscape.org/) -->

<svg
   width="512"
   height="512"
   viewBox="0 0 512 512"
   version="1.1"
   id="svg1"
   inkscape:version="1.4 (86a8ad7, 2024-10-11)"
   sodipodi:docname="favicon.svg"
   xmlns:inkscape="http://www.inkscape.org/namespaces/inkscape"
   xmlns:sodipodi="http://sodipodi.sourceforge.net/DTD/sodipodi-0.dtd"
   xmlns="http://www.w3.org/2000/svg"
   xmlns:svg="http://www.w3.org/2000/svg">
  <sodipodi:namedview
     id="namedview1"
     pagecolor="#ffffff"
     bordercolor="#000000"
     borderopacity="0.25"
     inkscape:showpageshadow="2"
     inkscape:pageopacity="0.0"
     inkscape:pagecheckerboard="0"
     inkscape:deskcolor="#d1d1d1"
     inkscape:document-units="px"
     inkscape:zoom="0.59228516"
     inkscape:cx="-274.36109"
     inkscape:cy="833.21352"
     inkscape:window-width="2560"
     inkscape:window-height="1494"
     inkscape:window-x="-11"
     inkscape:window-y="-11"
     inkscape:window-maximized="1"
     inkscape:current-layer="layer1" />
  <defs
     id="defs1" />
  <g
     inkscape:label="Layer 1"
     inkscape:groupmode="layer"
     id="layer1">
    <path
       id="path2"
       style="fill:#999069;stroke-width:1.455"
       d="M 256 2.6035156 A 253.397 253.39722 0 0 0 2.6035156 256 A 253.397 253.39722 0 0 0 18.378906 342.16797 C 18.474466 326.02706 19.909645 307.28661 24.785156 289.69727 C 43.016416 223.92453 76.268487 157.61617 109.23828 176.09375 C 163.559 206.53723 171.31834 320.55252 213.10352 297.86914 C 254.88869 275.18576 280.55851 65.065487 348.01172 120.58008 C 379.99166 146.89985 396.77303 210.70254 424.82812 251.39453 C 455.94783 296.53152 496.26179 317.63296 485.90234 322.3418 C 476.15566 326.77211 429.30615 299.88836 402 259.08789 C 374.11852 217.42778 365.74747 162.07364 353.38281 190.42188 C 328.90864 246.5334 273.15096 380.96108 250.71094 376.66406 C 222.65519 371.29168 177.75284 330.32695 146.8457 268.61914 C 128.99905 232.98733 63.052948 351.23506 41.804688 391.12109 A 253.397 253.39722 0 0 0 256 509.39648 A 253.397 253.39722 0 0 0 509.39648 256 A 253.397 253.39722 0 0 0 256 2.6035156 z M 172.92578 49.947266 C 188.56736 50.221973 182.42678 74.395786 198.86914 84.599609 C 216.72355 95.679722 236.65577 75.565209 243.46094 95.386719 C 250.14571 114.85754 229.99149 114.48179 225.94922 134.01367 C 221.83414 153.89735 235.46176 163.67287 220.83008 178.22266 C 206.45727 192.51502 197.73537 164.8411 177.64453 167.08398 C 157.19183 169.36726 160.34609 196.12321 141.97852 185.59375 C 123.93591 175.25058 143.05045 163.94561 134.89648 144.75977 C 126.59566 125.22836 107.89865 129.0926 111.65234 108.16211 C 115.33963 87.601935 126.46619 101.81965 141.33789 87.189453 C 156.47745 72.295746 149.14133 53.567253 169.49414 50.222656 C 170.74369 50.017317 171.88301 49.928952 172.92578 49.947266 z " />
  </g>
</svg>
