<?xml version="1.0" encoding="UTF-8" standalone="no"?>
<!-- Created with Inkscape (http://www.inkscape.org/) -->

<svg
   width="32"
   height="32"
   viewBox="0 0 32 32"
   version="1.1"
   id="svg1"
   inkscape:version="1.4 (86a8ad7, 2024-10-11)"
   sodipodi:docname="favicon.svg"
   xmlns:inkscape="http://www.inkscape.org/namespaces/inkscape"
   xmlns:sodipodi="http://sodipodi.sourceforge.net/DTD/sodipodi-0.dtd"
   xmlns="http://www.w3.org/2000/svg"
   xmlns:svg="http://www.w3.org/2000/svg">
  <sodipodi:namedview
     id="namedview1"
     pagecolor="#ffffff"
     bordercolor="#000000"
     borderopacity="0.25"
     inkscape:showpageshadow="2"
     inkscape:pageopacity="0.0"
     inkscape:pagecheckerboard="0"
     inkscape:deskcolor="#d1d1d1"
     inkscape:document-units="px"
     showgrid="true"
     inkscape:zoom="18.953125"
     inkscape:cx="15.221764"
     inkscape:cy="22.450124"
     inkscape:window-width="2560"
     inkscape:window-height="1494"
     inkscape:window-x="-11"
     inkscape:window-y="-11"
     inkscape:window-maximized="1"
     inkscape:current-layer="layer1">
    <inkscape:grid
       id="grid1"
       units="px"
       originx="0"
       originy="0"
       spacingx="1"
       spacingy="1"
       empcolor="#0099e5"
       empopacity="0.30196078"
       color="#0099e5"
       opacity="0.14901961"
       empspacing="4"
       enabled="true"
       visible="true" />
  </sodipodi:namedview>
  <defs
     id="defs1">
    <linearGradient
       id="swatch22"
       inkscape:swatch="solid">
      <stop
         style="stop-color:#aacd98;stop-opacity:1;"
         offset="0"
         id="stop22" />
    </linearGradient>
    <clipPath
       clipPathUnits="userSpaceOnUse"
       id="clipPath5">
      <rect
         style="fill:#000000;stroke:#000000;stroke-width:0;stroke-linejoin:bevel;paint-order:stroke markers fill;stop-color:#000000"
         id="rect5-4"
         width="20"
         height="200"
         x="530"
         y="595" />
    </clipPath>
  </defs>
  <g
     inkscape:label="Layer 1"
     inkscape:groupmode="layer"
     id="layer1">
    <path
       id="path1"
       style="fill:#aacd98;fill-opacity:1;stroke-width:1.455"
       d="M 16 1 C 7.7157288 1 1 7.7157288 1 16 C 1 24.284271 7.7157288 31 16 31 C 22.727598 30.994103 29.577615 26.70197 30.435547 20.029297 C 30.651074 18.353011 29 22 26 22 C 22.686292 22 20 19.313708 20 16 C 20 12.686292 22.686292 10 26 10 C 29 10 30.658954 13.647465 30.443359 11.96875 C 29.586084 5.2936265 22.729947 1.0021494 16 1 z M 9.2636719 9.0390625 C 11.163941 8.9706865 9.0854825 13.077262 11.464844 14.005859 C 14.009326 14.998898 15.253902 9.9063747 16.738281 12.199219 C 18.21887 14.486209 13.056181 13.500853 12.898438 16.220703 C 12.740289 18.947515 17.969972 18.557478 16.248047 20.677734 C 14.530516 22.792577 13.871805 17.579074 11.236328 18.269531 C 8.5941052 18.961755 10.579837 23.812532 8.03125 22.830078 C 5.489169 21.850132 10.244508 19.613436 8.7734375 17.320312 C 7.2986026 15.021318 3.2985003 18.409086 3.4453125 15.681641 C 3.5917497 12.961159 7.1897104 16.793232 8.9160156 14.685547 C 10.64674 12.572467 6.188803 9.8145283 8.828125 9.1113281 C 8.9926615 9.0674903 9.1369873 9.0436209 9.2636719 9.0390625 z " />
    <circle
       style="fill:#aacd98;fill-opacity:1;stroke-width:1.455"
       id="path2"
       cx="0"
       cy="0"
       r="0" />
  </g>
</svg>
